<svg width="40" height="40" viewBox="0 0 40 40" fill="none" xmlns="http://www.w3.org/2000/svg">
<g clip-path="url(#clip0_2_78)">
<path d="M6.66667 10C6.66667 9.11597 7.01786 8.26812 7.64298 7.643C8.2681 7.01788 9.11595 6.66669 10 6.66669H30C30.8841 6.66669 31.7319 7.01788 32.357 7.643C32.9821 8.26812 33.3333 9.11597 33.3333 10V30C33.3333 30.8841 32.9821 31.7319 32.357 32.357C31.7319 32.9822 30.8841 33.3334 30 33.3334H10C9.11595 33.3334 8.2681 32.9822 7.64298 32.357C7.01786 31.7319 6.66667 30.8841 6.66667 30V10Z" stroke="#5F5F5F" stroke-width="3.33333" stroke-linecap="round" stroke-linejoin="round"/>
<path d="M13.3333 18.3333V26.6666" stroke="#5F5F5F" stroke-width="3.33333" stroke-linecap="round" stroke-linejoin="round"/>
<path d="M13.3333 13.3333V13.35" stroke="#5F5F5F" stroke-width="3.33333" stroke-linecap="round" stroke-linejoin="round"/>
<path d="M20 26.6666V18.3333" stroke="#5F5F5F" stroke-width="3.33333" stroke-linecap="round" stroke-linejoin="round"/>
<path d="M26.6667 26.6666V21.6666C26.6667 20.7826 26.3155 19.9347 25.6904 19.3096C25.0652 18.6845 24.2174 18.3333 23.3333 18.3333C22.4493 18.3333 21.6014 18.6845 20.9763 19.3096C20.3512 19.9347 20 20.7826 20 21.6666" stroke="#5F5F5F" stroke-width="3.33333" stroke-linecap="round" stroke-linejoin="round"/>
</g>
<defs>
<clipPath id="clip0_2_78">
<rect width="40" height="40" fill="white"/>
</clipPath>
</defs>
</svg>
