<svg width="64" height="64" viewBox="0 0 64 64" fill="none" xmlns="http://www.w3.org/2000/svg">
<path d="M31.905 0.512939L2.27649 10.9399L6.95799 49.7584L31.9365 63.4869L57.0435 49.5729L61.7235 10.7554L31.905 0.512939Z" fill="#B3B3B3"/>
<path d="M58.768 12.999L31.836 3.81445V60.207L54.4065 47.7155L58.768 12.999Z" fill="#A6120D"/>
<path d="M5.60049 13.1645L9.61349 47.8815L31.8355 60.207V3.81348L5.60049 13.1645Z" fill="#DD1B16"/>
<path d="M39.2495 33.8351L31.836 37.3021H24.022L20.3485 46.4891L13.517 46.6161L31.836 5.86206L39.2495 33.8351ZM38.5325 32.0896L31.885 18.9291L26.432 31.8631H31.8355L38.5325 32.0896Z" fill="#F2F2F2"/>
<path d="M31.8355 5.86206L31.8845 18.9291L38.072 31.8731H31.849L31.8355 37.2936L40.44 37.3021L44.461 46.6171L50.998 46.7381L31.8355 5.86206Z" fill="#B3B3B3"/>
</svg>
