<svg width="64" height="64" viewBox="0 0 64 64" fill="none" xmlns="http://www.w3.org/2000/svg">
<path d="M38.1985 27.838C36.83 27.838 35.811 28.51 35.811 30.1275C35.811 31.346 36.4825 32.192 38.125 32.192C39.517 32.192 40.463 31.3715 40.463 30.077C40.463 28.61 39.6165 27.838 38.1985 27.838ZM35.463 39.258C35.139 39.6555 34.816 40.078 34.816 40.5765C34.816 41.571 36.084 41.87 37.8265 41.87C39.269 41.87 41.2345 41.769 41.2345 40.4275C41.2345 39.63 40.2885 39.581 39.094 39.506L35.463 39.258ZM42.8255 27.913C43.273 28.4855 43.7465 29.2815 43.7465 30.426C43.7465 33.187 41.582 34.804 38.448 34.804C37.651 34.804 36.9295 34.705 36.482 34.5805L35.661 35.899L38.0985 36.0475C42.4025 36.322 44.9395 36.4465 44.9395 39.754C44.9395 42.6155 42.4275 44.2315 38.0985 44.2315C33.5955 44.2315 31.8795 43.087 31.8795 41.1225C31.8795 40.0025 32.3775 39.407 33.248 38.5845C32.4265 38.2375 32.1535 37.616 32.1535 36.944C32.1535 36.3965 32.427 35.899 32.875 35.426C33.323 34.954 33.8205 34.4805 34.417 33.9335C33.198 33.3365 32.278 32.043 32.278 30.2015C32.278 27.341 34.1685 25.3765 37.9745 25.3765C39.0445 25.3765 39.692 25.475 40.2635 25.6255H45.115V27.7395L42.8255 27.913ZM49.4915 23.393C48.073 23.393 47.252 22.5715 47.252 21.153C47.252 19.7365 48.073 18.9645 49.4915 18.9645C50.9345 18.9645 51.755 19.736 51.755 21.153C51.7555 22.5715 50.9345 23.393 49.4915 23.393ZM46.2815 38.343V36.3785L47.551 36.2045C47.899 36.1545 47.9485 36.08 47.9485 35.706V28.3925C47.9485 28.1195 47.8745 27.9445 47.625 27.8705L46.2815 27.3975L46.555 25.3835H51.7055V35.7065C51.7055 36.1055 51.7295 36.1545 52.1035 36.205L53.3725 36.379V38.3435L46.2815 38.343ZM63.21 37.378C62.1395 37.8995 60.573 38.373 59.154 38.373C56.194 38.373 55.075 37.18 55.075 34.3675V27.85C55.075 27.7015 55.075 27.6015 54.8755 27.6015H53.1345V25.3875C55.3245 25.138 56.1945 24.0435 56.468 21.332H58.832V24.8655C58.832 25.039 58.832 25.1145 59.031 25.1145H62.5385V27.602H58.832V33.547C58.832 35.0145 59.1805 35.5865 60.5235 35.5865C61.221 35.5865 61.9415 35.413 62.5385 35.189L63.21 37.378Z" fill="#31251C"/>
<path d="M26.35 30.85L14.9755 19.476C14.6609 19.1615 14.2343 18.9849 13.7895 18.9849C13.3447 18.9849 12.9181 19.1615 12.6035 19.476L10.2415 21.838L13.237 24.834C13.5892 24.7143 13.968 24.6956 14.3303 24.78C14.6926 24.8645 15.0241 25.0488 15.287 25.312C15.5515 25.5767 15.7362 25.9105 15.8199 26.2753C15.9037 26.64 15.8831 27.0209 15.7605 27.3745L18.648 30.262C19.0748 30.1133 19.5394 30.114 19.9657 30.264C20.392 30.4139 20.7548 30.7042 20.9945 31.0874C21.2342 31.4705 21.3367 31.9237 21.2851 32.3727C21.2335 32.8216 21.0309 33.2398 20.7105 33.5585C20.3844 33.8853 19.955 34.0889 19.4956 34.1347C19.0362 34.1805 18.5751 34.0655 18.1909 33.8095C17.8067 33.5535 17.5231 33.1722 17.3885 32.7306C17.2539 32.289 17.2765 31.8143 17.4525 31.3875L14.7595 28.6945L14.759 35.7815C15.0432 35.9219 15.29 36.128 15.4787 36.3827C15.6675 36.6374 15.7929 36.9334 15.8445 37.2462C15.8961 37.5591 15.8724 37.8797 15.7755 38.1815C15.6785 38.4833 15.5111 38.7578 15.287 38.982C15.078 39.1909 14.8253 39.3508 14.547 39.4502C14.2688 39.5496 13.972 39.586 13.6779 39.5567C13.3839 39.5275 13.1001 39.4333 12.8468 39.2811C12.5936 39.1289 12.3773 38.9223 12.2136 38.6764C12.0498 38.4304 11.9428 38.1512 11.9 37.8588C11.8573 37.5665 11.88 37.2683 11.9664 36.9857C12.0529 36.7032 12.201 36.4434 12.4001 36.225C12.5991 36.0067 12.8442 35.8352 13.1175 35.723V28.5705C12.8737 28.4707 12.6522 28.3236 12.4655 28.1376C12.2789 27.9517 12.131 27.7307 12.0303 27.4873C11.9295 27.2439 11.878 26.9829 11.8786 26.7195C11.8793 26.4561 11.9321 26.1954 12.034 25.9525L9.08099 22.9985L1.28149 30.7975C1.12561 30.9533 1.00195 31.1384 0.917586 31.342C0.833219 31.5456 0.789795 31.7639 0.789795 31.9843C0.789795 32.2047 0.833219 32.4229 0.917586 32.6266C1.00195 32.8302 1.12561 33.0152 1.28149 33.171L12.656 44.545C12.9707 44.8596 13.3975 45.0363 13.8425 45.0363C14.2875 45.0363 14.7142 44.8596 15.029 44.545L26.35 33.223C26.5059 33.0672 26.6295 32.8823 26.7139 32.6787C26.7982 32.4751 26.8417 32.2569 26.8417 32.0365C26.8417 31.8161 26.7982 31.5979 26.7139 31.3944C26.6295 31.1908 26.5059 31.0058 26.35 30.85Z" fill="#F34F29"/>
</svg>
